<mxGraphModel dx="0" dy="0" grid="1" gridSize="10" guides="1" tooltips="1" connect="1" arrows="1" fold="1" page="0" pageScale="1" background="none" math="0" shadow="0">
  <root>
    <mxCell id="0" />
    <mxCell id="1" parent="0" />
    <mxCell id="node0" parent="1" vertex="1" value="&lt;p style=&quot;margin:0px;margin-top:4px;text-align:center;&quot;&gt;&lt;b&gt;AbstractReportController&lt;T&gt;&lt;/b&gt;&lt;/p&gt;&lt;hr size=&quot;1&quot;/&gt;&lt;p style=&quot;margin:0 0 0 4px;line-height:1.6;&quot;&gt;# AbstractReportController(ReportService&amp;lt;T&amp;gt;): &lt;/p&gt;&lt;hr size=&quot;1&quot;/&gt;&lt;p style=&quot;margin:0 0 0 4px;line-height:1.6;&quot;&gt;+ getTopActionsByUser(String): ResponseEntity&amp;lt;List&amp;lt;T&amp;gt;&amp;gt;&lt;/p&gt;&lt;hr size=&quot;1&quot;/&gt;&lt;p style=&quot;margin:0 0 0 4px;line-height:1.6;&quot;&gt; avgActionsPerUser: ResponseEntity&amp;lt;T&amp;gt;&lt;br/&gt; weeklyActiveUsers: ResponseEntity&amp;lt;List&amp;lt;T&amp;gt;&amp;gt;&lt;br/&gt; actionsLeadingToCancellations: ResponseEntity&amp;lt;List&amp;lt;T&amp;gt;&amp;gt;&lt;br/&gt; peakActivityHours: ResponseEntity&amp;lt;List&amp;lt;T&amp;gt;&amp;gt;&lt;br/&gt; avgTimeBetweenActionsPerUser: ResponseEntity&amp;lt;List&amp;lt;T&amp;gt;&amp;gt;&lt;br/&gt; bookingsMadeEachDay: ResponseEntity&amp;lt;List&amp;lt;T&amp;gt;&amp;gt;&lt;br/&gt; mostFrequentActionSequences: ResponseEntity&amp;lt;List&amp;lt;T&amp;gt;&amp;gt;&lt;br/&gt; actionsGroupedByType: ResponseEntity&amp;lt;List&amp;lt;T&amp;gt;&amp;gt;&lt;br/&gt; mostActiveDaysOfWeek: ResponseEntity&amp;lt;List&amp;lt;T&amp;gt;&amp;gt;&lt;br/&gt; loginAttemptsLastWeek: ResponseEntity&amp;lt;List&amp;lt;T&amp;gt;&amp;gt;&lt;br/&gt; mostActiveUsers: ResponseEntity&amp;lt;List&amp;lt;T&amp;gt;&amp;gt;&lt;br/&gt; timeToFirstActionAfterSignup: ResponseEntity&amp;lt;List&amp;lt;T&amp;gt;&amp;gt;&lt;br/&gt; dailyActiveUsers: ResponseEntity&amp;lt;List&amp;lt;T&amp;gt;&amp;gt;&lt;br/&gt; usersWithMoreThanTenActions: ResponseEntity&amp;lt;List&amp;lt;T&amp;gt;&amp;gt;&lt;br/&gt; userActionsLastMonth: ResponseEntity&amp;lt;List&amp;lt;T&amp;gt;&amp;gt;&lt;br/&gt; totalActions: ResponseEntity&amp;lt;T&amp;gt;&lt;br/&gt; correlationBetweenActionsAndRatings: ResponseEntity&amp;lt;List&amp;lt;T&amp;gt;&amp;gt;&lt;br/&gt; userActionsOverTime: ResponseEntity&amp;lt;List&amp;lt;T&amp;gt;&amp;gt;&lt;br/&gt; actionsLeadingToHighRatings: ResponseEntity&amp;lt;List&amp;lt;T&amp;gt;&amp;gt;&lt;br/&gt; distributionOfActionsPastMonth: ResponseEntity&amp;lt;List&amp;lt;T&amp;gt;&amp;gt;&lt;br/&gt; userRetentionRate: ResponseEntity&amp;lt;T&amp;gt;&lt;br/&gt; actionTypesByUser: ResponseEntity&amp;lt;List&amp;lt;T&amp;gt;&amp;gt;&lt;br/&gt; hourlyBookingTrends: ResponseEntity&amp;lt;List&amp;lt;T&amp;gt;&amp;gt;&lt;br/&gt; monthlyActiveUsers: ResponseEntity&amp;lt;List&amp;lt;T&amp;gt;&amp;gt;&lt;/p&gt;" style="verticalAlign=top;align=left;overflow=fill;fontSize=14;fontFamily=Helvetica;html=1;rounded=0;shadow=0;comic=0;labelBackgroundColor=none;strokeWidth=1;">
      <mxGeometry x="-228" y="-52" width="457" height="665" as="geometry" />
    </mxCell>
    <mxCell id="node1" parent="1" vertex="1" value="&lt;p style=&quot;margin:0px;margin-top:4px;text-align:center;&quot;&gt;&lt;b&gt;BaseReportResponseDTO&lt;/b&gt;&lt;/p&gt;&lt;hr size=&quot;1&quot;/&gt;&lt;p style=&quot;margin:0 0 0 4px;line-height:1.6;&quot;&gt;+ BaseReportResponseDTO(String, Map&amp;lt;String, Object&amp;gt;): &lt;br/&gt;+ BaseReportResponseDTO(): &lt;/p&gt;&lt;hr size=&quot;1&quot;/&gt;&lt;p style=&quot;margin:0 0 0 4px;line-height:1.6;&quot;&gt;- query: String&lt;br/&gt;- result: Map&amp;lt;String, Object&amp;gt;&lt;/p&gt;&lt;hr size=&quot;1&quot;/&gt;&lt;p style=&quot;margin:0 0 0 4px;line-height:1.6;&quot;&gt; result: Map&amp;lt;String, Object&amp;gt;&lt;br/&gt; query: String&lt;/p&gt;" style="verticalAlign=top;align=left;overflow=fill;fontSize=14;fontFamily=Helvetica;html=1;rounded=0;shadow=0;comic=0;labelBackgroundColor=none;strokeWidth=1;">
      <mxGeometry x="-199" y="-332" width="399" height="185" as="geometry" />
    </mxCell>
    <mxCell id="edge0" edge="1" value="" parent="1" source="node0" target="node1" style="html=1;rounded=1;edgeStyle=orthogonalEdgeStyle;dashed=1;startArrow=none;endArrow=openThin;endSize=12;strokeColor=#595959;exitX=0.500;exitY=0.000;exitDx=0;exitDy=0;entryX=0.500;entryY=1.000;entryDx=0;entryDy=0;">
      <mxGeometry width="50" height="50" relative="1" as="geometry">
        <Array as="points" />
      </mxGeometry>
    </mxCell>
  </root>
</mxGraphModel>